<?xml version="1.0" standalone="no"?>
<!DOCTYPE svg PUBLIC "-//W3C//DTD SVG 20010904//EN"
 "http://www.w3.org/TR/2001/REC-SVG-20010904/DTD/svg10.dtd">
<svg version="1.0" xmlns="http://www.w3.org/2000/svg"
 width="512.000000pt" height="512.000000pt" viewBox="0 0 512.000000 512.000000"
 preserveAspectRatio="xMidYMid meet">

<g transform="translate(0.000000,512.000000) scale(0.100000,-0.100000)"
fill="#000000" stroke="none">
<path d="M4033 4476 c-211 -51 -396 -272 -481 -575 -13 -45 -32 -85 -51 -106
-52 -60 -53 -148 -1 -186 21 -16 29 -32 34 -71 16 -121 74 -212 167 -263 50
-27 62 -30 159 -30 122 0 204 21 334 87 105 53 152 85 225 159 81 81 119 137
133 198 14 60 -1 124 -33 141 -39 21 -80 -6 -206 -133 -159 -160 -245 -212
-374 -224 -102 -10 -150 32 -164 142 l-7 51 79 33 c340 146 533 337 533 526 0
192 -148 299 -347 251z m71 -242 c24 -23 19 -65 -12 -115 -42 -65 -120 -123
-236 -174 l-57 -25 6 22 c4 13 24 59 45 103 71 149 199 244 254 189z"/>
<path d="M1125 4459 c-66 -6 -111 -19 -195 -54 -30 -13 -80 -31 -111 -39 -70
-20 -126 -60 -184 -133 -167 -210 -259 -534 -258 -908 1 -344 82 -600 246
-780 77 -85 161 -139 263 -171 189 -59 365 -4 566 176 l57 50 100 -65 c176
-116 372 -195 447 -180 69 13 131 96 141 189 5 51 4 57 -24 85 -18 18 -45 32
-69 36 -170 28 -266 64 -361 136 l-52 39 26 67 c162 429 176 812 38 1098 -83
171 -245 338 -401 412 -82 39 -145 51 -229 42z m158 -288 c61 -30 146 -107
186 -170 132 -205 151 -549 49 -871 -16 -52 -33 -98 -37 -102 -3 -4 -41 24
-85 62 -83 74 -149 107 -191 96 -41 -10 -104 -73 -111 -112 -10 -53 12 -91
110 -192 l91 -94 -60 -54 c-33 -30 -87 -68 -119 -84 -145 -73 -284 -13 -371
159 -77 155 -110 337 -102 567 7 210 37 332 125 514 38 79 60 109 126 175 109
108 165 136 266 132 54 -2 88 -9 123 -26z"/>
<path d="M2920 4272 c-60 -30 -63 -46 -44 -259 34 -393 -7 -642 -141 -844 -80
-119 -153 -149 -212 -86 -69 72 -68 64 -70 462 -2 212 -7 375 -13 398 -16 56
-47 71 -127 64 -71 -7 -108 -25 -125 -61 -7 -17 -7 -133 1 -392 8 -308 13
-381 29 -440 52 -192 180 -308 355 -321 61 -5 79 -2 118 16 106 50 193 161
264 337 23 57 44 106 46 109 3 2 22 -45 43 -106 44 -124 65 -149 128 -149 59
0 108 27 125 69 23 54 12 126 -45 296 -60 180 -69 232 -87 524 -16 256 -33
331 -87 376 -36 31 -105 34 -158 7z"/>
<path d="M3664 2420 c-80 -21 -163 -54 -279 -112 -185 -93 -335 -227 -335
-299 0 -33 49 -78 88 -80 57 -3 50 -7 222 124 120 91 252 158 369 188 96 24
125 20 146 -21 23 -45 19 -91 -14 -142 -50 -79 -99 -126 -296 -283 -104 -83
-196 -159 -204 -169 -39 -48 -16 -197 41 -262 29 -33 35 -36 75 -31 69 7 83
27 83 113 l0 73 73 61 c328 279 403 356 456 470 62 135 0 284 -151 360 -52 25
-72 30 -132 29 -39 0 -103 -8 -142 -19z"/>
<path d="M2245 2245 c-44 -20 -88 -62 -240 -230 -148 -162 -175 -203 -175
-263 0 -53 27 -77 76 -69 35 6 109 69 346 297 98 95 125 194 69 251 -33 33
-35 33 -76 14z"/>
<path d="M2123 1625 c-203 -55 -363 -248 -447 -539 -15 -49 -37 -101 -51 -118
-48 -56 -46 -135 3 -178 21 -18 31 -37 35 -71 14 -103 79 -198 165 -240 39
-19 63 -23 142 -23 81 0 109 5 192 33 123 42 229 104 313 182 122 115 173 220
145 303 -28 85 -96 64 -207 -63 -121 -139 -200 -196 -309 -227 -135 -37 -214
11 -214 129 l0 42 97 45 c204 94 361 220 429 343 26 47 29 61 29 142 0 73 -4
98 -22 130 -57 106 -165 146 -300 110z m77 -245 c14 -26 -5 -81 -45 -128 -47
-54 -225 -165 -241 -149 -7 7 36 112 68 164 42 69 86 111 133 127 44 15 72 11
85 -14z"/>
<path d="M3438 1180 c-120 -22 -203 -170 -151 -269 41 -78 117 -99 207 -58 50
23 56 29 56 56 0 20 7 34 21 41 13 7 18 17 14 27 -3 10 5 27 22 45 15 15 22
28 15 28 -6 0 -20 19 -30 43 -10 23 -25 48 -34 54 -30 25 -83 40 -120 33z"/>
<path d="M4970 888 c41 -45 50 -53 50 -45 0 2 -21 23 -47 47 l-48 45 45 -47z"/>
<path d="M4290 840 c8 -5 20 -10 25 -10 6 0 3 5 -5 10 -8 5 -19 10 -25 10 -5
0 -3 -5 5 -10z"/>
<path d="M3725 700 c-8 -13 3 -30 18 -30 8 0 7 3 -2 9 -7 5 -10 14 -7 20 4 6
5 11 2 11 -3 0 -8 -4 -11 -10z"/>
<path d="M3780 655 c14 -8 30 -14 35 -14 6 0 -1 6 -15 14 -14 8 -29 14 -35 14
-5 0 1 -6 15 -14z"/>
<path d="M3881 638 c-1 -12 -7 -16 -18 -12 -16 5 -16 4 0 -6 22 -14 30 -8 24
17 -4 16 -5 16 -6 1z"/>
<path d="M3858 573 c7 -3 16 -2 19 1 4 3 -2 6 -13 5 -11 0 -14 -3 -6 -6z"/>
<path d="M4930 145 c14 -8 30 -14 35 -14 6 0 -1 6 -15 14 -14 8 -29 14 -35 14
-5 0 1 -6 15 -14z"/>
<path d="M5010 110 c19 -11 40 -19 45 -19 6 0 -6 8 -25 19 -19 11 -39 19 -45
19 -5 0 6 -8 25 -19z"/>
<path d="M5071 86 c2 -2 15 -9 29 -15 24 -11 24 -11 6 3 -16 13 -49 24 -35 12z"/>
</g>
</svg>
